# xmcd
#
# Track frame offsets: 
#        150
#        14704
#        28981
#        43183
#        56631
#        70218
#        84113
#
# Disc length: 1543 seconds
#
# Revision: 0
# Processed by: cddbd v1.5.2PL0 Copyright (c) Steve Scherf et al.
# Submitted via: ExactAudioCopy v0.95b4
#
DISCID=5c060507
DTITLE=Thelonius Monk - BlueNote12
DYEAR=2012
DGENRE=Jazz
TTITLE0='Round Midnight
TTITLE1=Ruby My Dear
TTITLE2=Epistrophy
TTITLE3=Straight No Chaser
TTITLE4=Well You Needn't
TTITLE5=Nice Work
TTITLE6=Reflections
EXTD=
EXTT0=
EXTT1=
EXTT2=
EXTT3=
EXTT4=
EXTT5=
EXTT6=
PLAYORDER=
